# xmcd
# Track frame offsets:
# 150
# 12417
# 18145
# 31013
# 40784
# 51927
# 63656
# 73637
# 82861
# 100037
# 108481
# 124588
# 141358
# 154453
# 165183
# 175047
# 195064
# 212708
# 228784
# 244649
# 266874
#
# Disc length: 3697 seconds
# Revision: 0
# Processed by: cddbd v1.4PL0 Copyright (c) Steve Scherf et al.
# Submitted via: VisiTrax 2.9.5.181 - For more info visit www.synapsa.com
#
DISCID=080e6f15
DTITLE=Nitty Gritty Dirt Band - Will The Circle Be Unbroken [CD2]
DYEAR=1972
DGENRE=Country
TTITLE0=Nitty Gritty Dirt Band - Lonesome Fiddle Blues
TTITLE1=Nitty Gritty Dirt Band and Merle Travis - Cannonball Rag
TTITLE2=Nitty Gritty Dirt Band - Avalanche
TTITLE3=Nitty Gritty Dirt Band - Flint Hill Special
TTITLE4=Nitty Gritty Dirt Band - Togary Mountain
TTITLE5=Nitty Gritty Dirt Band - Earl's Breakdown
TTITLE6=Nitty Gritty Dirt Band and Vassar Clements - Orange Blossom Special
TTITLE7=Nitty Gritty Dirt Band - Wabash Cannonball
TTITLE8=Nitty Gritty Dirt Band - Lost Highway
TTITLE9=Nitty Gritty Dirt Band - Doc Watson and Merle Travis first meeting
TTITLE10=Nitty Gritty Dirt Band and Doc Watson - Way Downtown
TTITLE11=Nitty Gritty Dirt Band and Doc Watson - Down Yonder
TTITLE12=Nitty Gritty Dirt Band and Roy Acuff - Pins And Needles In My Heart
TTITLE13=Nitty Gritty Dirt Band - Honky Tonk Blues
TTITLE14=Nitty Gritty Dirt Band - Sailin On To Hawaii
TTITLE15=Nitty Gritty Dirt Band - I'm Thinking Tonight Of My Blue Eyes
TTITLE16=Nitty Gritty Dirt Band - I Am A Pilgrim
TTITLE17=Nitty Gritty Dirt Band and Maybelle Carter - Wildwood Flower
TTITLE18=Nitty Gritty Dirt Band - Soldiers Joy
TTITLE19=Nitty Gritty Dirt Band - Will The Circle Be Unbroken
TTITLE20=Nitty Gritty Dirt Band - Both Sides Now
EXTD=The Nitty Gritty Dirt Band: John McEuen (banjo, mandolin), Les Thompso
EXTD=n (mandolin, vocals), Jimmie Fadden (harp, vocals), Jim Ibbotson (drum
EXTD=s, vocals), Jeff Hanna (washboard, vocals). Additional personnel: Jimm
EXTD=y Martin (guitar, vocals), Vassar Clememts (fiddle, guitar), Pete "Osw
EXTD=ald" Kirby, Norman Blake (dobro), Randy Scruggs (autoharp, guitar), Ro
EXTD=y "Junior" Huskey, Ellis Padgett (bass), Timmy Martin, Betty Travis, F
EXTD=red Cross, Gloria Belle, Louise Scruggs, Steve Scruggs, Chet Flippo, M
EXTD=artha Flippo, Larry Murray, Mike Carr, Alice McEuen, Jimmy Martin, Ra
EXTD=y Martin, Gary Scruggs, Ray Martin (background vocals).Recorded At Woo
EXTD=dland Studios, Nashville, Tennessee.3 LPs on 2 CDs
EXTD=                   
EXTD=                                                          Mu
EXTD=sicians Doc Watson\nMaybelle Carter\nMerle Travis\nEarl Scruggs\n \nEn
EXTD=gineer\n Rick Horton - Rex Collier \nProducer\n William E. McEuen \nNo
EXTD=of Discs\n 2 \nSPAR\n AAD \nMono/Stereo\n Stereo \nStudio/Live\n Stu
EXTD=dio
EXTT0=
EXTT1=
EXTT2=
EXTT3=
EXTT4=
EXTT5=
EXTT6=
EXTT7=
EXTT8=
EXTT9=
EXTT10=
EXTT11=
EXTT12=
EXTT13=
EXTT14=
EXTT15=
EXTT16=
EXTT17=
EXTT18=
EXTT19=
EXTT20=
PLAYORDER=
